<svg width="124" height="83" viewBox="0 0 124 83" fill="none" xmlns="http://www.w3.org/2000/svg">
<path d="M16.7287 1.5H6.20752C3.71442 1.5 1.69336 3.52106 1.69336 6.01416V17.2675" stroke="white" stroke-width="2.25708" stroke-linecap="round"/>
<path d="M1.69336 65.9612L1.69336 76.7507C1.69336 79.2438 3.71442 81.2649 6.20752 81.2649L17.1843 81.2649" stroke="white" stroke-width="2.25708" stroke-linecap="round"/>
<path d="M106.939 81.5L117.46 81.5C119.954 81.5 121.975 79.4789 121.975 76.9858L121.975 65.7325" stroke="white" stroke-width="2.25708" stroke-linecap="round"/>
<path d="M122.432 16.8037L122.432 6.01415C122.432 3.52105 120.411 1.5 117.917 1.5L106.941 1.5" stroke="white" stroke-width="2.25708" stroke-linecap="round"/>
<rect x="13.1523" y="74.8142" width="65.236" height="97.8247" rx="1.50472" transform="rotate(-90 13.1523 74.8142)" fill="white"/>
<rect x="16.2188" y="71.0699" width="58.369" height="90.7715" rx="1.50472" transform="rotate(-90 16.2188 71.0699)" fill="#2F4439"/>
<rect x="20.2051" y="67.0115" width="49.9414" height="83.4116" rx="1.50472" transform="rotate(-90 20.2051 67.0115)" fill="#E0E9C2"/>
<rect x="24.4863" y="31.2096" width="21.4084" height="33.7488" rx="1.50472" fill="white"/>
<path d="M38.9355 57.8314C37.9596 57.7946 37.6032 56.8471 37.525 55.8414C37.4539 54.9268 36.7969 54.0806 35.88 54.0495L35.0128 54.0201C34.0808 53.9885 33.3774 54.8122 33.279 55.7395C33.2111 56.3789 33.0471 56.8211 32.8826 57.0948C32.7549 57.3071 32.5166 57.4055 32.2742 57.4569C31.2626 57.6712 29.3865 58.1864 27.7432 59.0227C26.2647 59.7752 25.1601 61.4279 24.7606 63.2629C24.5838 64.0749 25.2713 64.756 26.1024 64.756L44.2251 64.756C45.1143 64.756 45.7342 64.1852 45.6619 63.2989C45.6404 63.0342 45.6172 62.7275 45.5923 62.3733C45.3729 59.2461 40.9106 57.9059 38.9355 57.8314Z" fill="#563517"/>
<g filter="url(#filter0_f_13335_37044)">
<path d="M37.1551 55.5489C36.039 58.2475 34.5022 56.7663 33.8177 55.6048C33.7815 55.5433 33.7637 55.4732 33.7637 55.4019C33.7637 55.0342 34.2184 54.8359 34.5334 55.0256C35.3548 55.5202 36.0241 55.4396 36.5056 55.1639C36.726 55.0376 37.1869 55.2172 37.173 55.4709C37.1715 55.4972 37.1652 55.5245 37.1551 55.5489Z" fill="#41250C"/>
</g>
<path d="M37.2015 58.2718C35.5929 59.3654 33.7728 58.443 32.8278 57.6255C32.7021 57.5167 32.5652 57.4166 32.3995 57.4033C31.8508 57.3594 30.5694 57.581 28.327 58.7222C26.2406 59.784 25.1473 61.2363 24.5907 63.0655C24.3249 63.939 25.0448 64.7533 25.9579 64.7533L44.5072 64.7533C45.2863 64.7533 45.919 64.1527 45.8027 63.3823C45.696 62.6757 45.4806 61.7822 45.0788 60.8071C44.1278 58.4989 39.6656 57.7543 39.1535 57.8287C38.5034 57.9233 37.7448 57.9024 37.2015 58.2718Z" fill="#6524B5"/>
<path d="M29.5555 50.0977C27.5376 48.5923 27.8308 47.4116 28.396 46.8275C28.5447 46.6738 28.7875 46.7237 28.9112 46.8981C29.1381 47.2178 29.6416 47.0573 29.6416 46.6653L29.6416 44.3139C29.6416 43.6778 30.1572 43.1621 30.7933 43.1621L39.9677 43.1621C40.6481 43.1621 41.1996 43.7136 41.1996 44.394L41.1996 46.8951C41.1996 47.3777 41.7786 47.5349 42.0043 47.1084C42.4139 46.334 42.6627 46.7857 42.7358 47.1084C42.9281 48.2829 42.3936 49.1143 41.7969 49.6238C41.3192 50.0316 40.9331 50.5969 40.689 51.1756C40.2292 52.2663 39.1648 53.1374 38.7124 53.6607C37.1031 55.5221 35.3551 55.7453 35.0625 55.7453C34.7699 55.7453 33.226 55.1498 31.6167 53.1395C30.8372 52.1657 30.2473 51.2016 30.1101 50.4928C30.0754 50.3135 29.9291 50.1611 29.7465 50.1611C29.6783 50.1611 29.6102 50.1385 29.5555 50.0977Z" fill="#563517"/>
<path d="M38.5672 43.6834C37.2798 45.8873 34.178 44.7258 32.1299 46.066L29.6426 47.7786C28.1211 46.4681 28.2528 43.5842 28.4723 42.2688C30.5937 36.0888 36.8116 37.2057 38.7867 37.8014C40.7618 38.397 42.1517 40.9286 42.5175 43.9814C42.8101 46.4236 41.7128 47.8284 41.1276 48.2255C41.3714 48.2503 41.7128 48.3297 41.1276 48.4488C40.5424 48.568 39.2012 45.4952 38.5672 43.6834Z" fill="black" stroke="black" stroke-width="0.75236"/>
<path d="M92.7012 65.0159L52.8323 65.0159" stroke="#2F4439" stroke-width="0.37618"/>
<path d="M60.6096 63.7612C60.5038 63.6906 60.445 63.5834 60.4332 63.4394C60.4215 63.2954 60.4391 63.1352 60.4861 62.9589C60.5361 62.7825 60.6052 62.5988 60.6933 62.4078C60.7844 62.2138 60.8785 62.0331 60.9755 61.8656C61.0754 61.6981 61.1694 61.5511 61.2576 61.4247C61.3458 61.2954 61.4119 61.2073 61.456 61.1602C61.4589 61.1485 61.4604 61.1235 61.4604 61.0853C61.4604 61.0442 61.4589 61.0177 61.456 61.006C61.4501 60.9707 61.4398 60.9104 61.4251 60.8252C61.4134 60.737 61.3987 60.6445 61.381 60.5475C61.3663 60.4476 61.3502 60.355 61.3325 60.2698C61.3179 60.1816 61.3076 60.1199 61.3017 60.0846C61.287 60.0582 61.265 60.0361 61.2356 60.0185C61.2091 60.0008 61.1797 59.9994 61.1474 60.0141L59.9263 60.4681C59.891 60.4828 59.8602 60.4814 59.8337 60.4637C59.8073 60.4461 59.7882 60.4226 59.7764 60.3932C59.7646 60.3638 59.7632 60.3344 59.772 60.305C59.7837 60.2756 59.8087 60.2536 59.8469 60.2389L62.3729 59.3969L62.6022 59.3969C62.6227 59.4586 62.6286 59.5042 62.6198 59.5336C62.611 59.56 62.5933 59.5791 62.5669 59.5909C62.5434 59.6026 62.514 59.61 62.4787 59.6129C62.4435 59.6159 62.4082 59.6217 62.3729 59.6305C62.3435 59.6394 62.2921 59.6541 62.2186 59.6746C62.1481 59.6952 62.0717 59.7187 61.9894 59.7452C61.9071 59.7687 61.8292 59.7922 61.7557 59.8157C61.6852 59.8363 61.6367 59.851 61.6103 59.8598C61.5926 60.0273 61.597 60.1963 61.6235 60.3667C61.6499 60.5343 61.697 60.6959 61.7646 60.8517L62.5272 60.4681C62.5684 60.4476 62.608 60.4446 62.6462 60.4593C62.6874 60.474 62.7168 60.4961 62.7344 60.5254C62.755 60.5548 62.7623 60.5872 62.7564 60.6224C62.7506 60.6548 62.7241 60.6797 62.6771 60.6974C62.6095 60.7238 62.5287 60.7517 62.4346 60.7811C62.3435 60.8076 62.2524 60.8399 62.1613 60.8781C62.0702 60.9163 61.9879 60.9633 61.9144 61.0192C61.841 61.075 61.791 61.147 61.7646 61.2352C61.7528 61.2646 61.7425 61.3336 61.7337 61.4424C61.7249 61.5482 61.7131 61.6775 61.6984 61.8303C61.6867 61.9831 61.669 62.1492 61.6455 62.3285C61.625 62.5077 61.597 62.6841 61.5618 62.8575C61.5265 63.0279 61.4824 63.1881 61.4295 63.338C61.3766 63.4879 61.312 63.6084 61.2356 63.6995C61.1591 63.7935 61.0695 63.8493 60.9667 63.867C60.8638 63.8846 60.7448 63.8493 60.6096 63.7612ZM60.7639 63.5275C60.805 63.6098 60.8506 63.6377 60.9005 63.6113C60.9505 63.5878 61.0004 63.5319 61.0504 63.4438C61.1033 63.3585 61.1533 63.2513 61.2003 63.122C61.2473 62.9956 61.2885 62.8707 61.3237 62.7473C61.3619 62.6238 61.3928 62.5136 61.4163 62.4166C61.4398 62.3196 61.453 62.2565 61.456 62.2271C61.4589 62.2006 61.4604 62.1521 61.4604 62.0816L61.4604 61.6187C61.4604 61.5452 61.4589 61.4938 61.456 61.4644C61.3325 61.5937 61.2223 61.7421 61.1254 61.9097C61.0313 62.0742 60.9534 62.2476 60.8917 62.4299C60.83 62.6091 60.7874 62.7928 60.7639 62.9809C60.7404 63.169 60.7404 63.3512 60.7639 63.5275ZM63.0033 62.8486C62.9298 62.7399 62.8858 62.6194 62.8711 62.4872C62.8564 62.352 62.8564 62.2109 62.8711 62.064C62.8858 61.917 62.9093 61.7686 62.9416 61.6187C62.9739 61.4688 63.0018 61.3248 63.0254 61.1867C63.0489 61.0456 63.0621 60.9148 63.065 60.7944C63.068 60.6709 63.0474 60.5651 63.0033 60.4769C62.9798 60.4299 62.9475 60.4079 62.9063 60.4108C62.8681 60.4108 62.8255 60.4167 62.7785 60.4285C62.7344 60.4373 62.6889 60.4402 62.6418 60.4373C62.5977 60.4343 62.5581 60.4064 62.5228 60.3535C62.5257 60.3418 62.5375 60.3271 62.5581 60.3094C62.5757 60.2889 62.5889 60.2771 62.5977 60.2742C62.8622 60.236 63.0827 60.2639 63.259 60.3579C63.4383 60.449 63.5808 60.5798 63.6866 60.7503C63.7924 60.9178 63.8644 61.1103 63.9026 61.3278C63.9438 61.5452 63.9585 61.7613 63.9467 61.9758C63.9349 62.1903 63.9011 62.3902 63.8453 62.5753C63.7895 62.7575 63.7189 62.8986 63.6337 62.9985C63.5485 63.0985 63.4515 63.1425 63.3428 63.1308C63.234 63.119 63.1209 63.025 63.0033 62.8486ZM63.2325 62.6944C63.2355 62.7032 63.2443 62.7149 63.259 62.7296C63.2737 62.7443 63.2884 62.7605 63.3031 62.7781C63.3207 62.7957 63.3369 62.8119 63.3516 62.8266C63.3663 62.8384 63.3766 62.8457 63.3824 62.8486C63.4912 62.7869 63.572 62.7032 63.6249 62.5974C63.6778 62.4916 63.7087 62.374 63.7175 62.2447C63.7292 62.1154 63.7233 61.9802 63.6998 61.8391C63.6793 61.6951 63.6484 61.557 63.6073 61.4247C63.5661 61.2925 63.5176 61.1705 63.4618 61.0589C63.4089 60.9472 63.3575 60.8561 63.3075 60.7855C63.3046 60.8237 63.2987 60.8825 63.2899 60.9619C63.281 61.0412 63.2722 61.1309 63.2634 61.2308C63.2546 61.3307 63.2443 61.4365 63.2325 61.5482C63.2208 61.6599 63.209 61.7671 63.1973 61.87C63.1885 61.9699 63.1796 62.0596 63.1708 62.1389C63.162 62.2183 63.1561 62.277 63.1532 62.3152C63.1503 62.3446 63.1503 62.3784 63.1532 62.4166C63.1591 62.4519 63.1664 62.4872 63.1752 62.5224C63.1841 62.5577 63.1929 62.5915 63.2017 62.6238C63.2134 62.6532 63.2237 62.6767 63.2325 62.6944ZM64.2641 63.0029C64.2053 62.8795 64.173 62.7546 64.1671 62.6282C64.1642 62.5019 64.1715 62.3725 64.1892 62.2403C64.1921 62.1991 64.1994 62.1374 64.2112 62.0551C64.223 61.9729 64.2362 61.8817 64.2509 61.7818C64.2656 61.6819 64.2817 61.5761 64.2994 61.4644C64.317 61.3527 64.3332 61.2469 64.3479 61.147C64.3626 61.0471 64.3758 60.9589 64.3875 60.8825C64.4022 60.8032 64.4125 60.7444 64.4184 60.7062C64.4419 60.5828 64.4669 60.4784 64.4933 60.3932C64.5227 60.305 64.5609 60.2374 64.608 60.1904C64.6579 60.1434 64.7211 60.1184 64.7975 60.1155C64.8769 60.1125 64.9783 60.1316 65.1017 60.1728C65.1164 60.1757 65.1326 60.1875 65.1502 60.208C65.1678 60.2257 65.1781 60.2389 65.181 60.2477C65.1869 60.2859 65.1972 60.3447 65.2119 60.424C65.2295 60.5034 65.2486 60.5945 65.2692 60.6974C65.2898 60.7973 65.3104 60.9031 65.3309 61.0148C65.3544 61.1235 65.3765 61.2293 65.3971 61.3322C65.4176 61.4321 65.4353 61.5217 65.45 61.6011C65.4676 61.6804 65.4808 61.7392 65.4896 61.7774C65.5337 61.9861 65.5881 62.1316 65.6527 62.2138C65.7174 62.2932 65.7865 62.3343 65.8599 62.3373C65.9334 62.3402 66.0083 62.3167 66.0848 62.2667C66.1641 62.2138 66.242 62.1595 66.3184 62.1036C66.3948 62.0449 66.4668 61.9949 66.5344 61.9537C66.602 61.9126 66.6608 61.9053 66.7107 61.9317C66.7107 61.9875 66.6975 62.0419 66.6711 62.0948C66.6446 62.1477 66.6123 62.1977 66.5741 62.2447C66.5388 62.2888 66.4991 62.3299 66.4551 62.3681C66.411 62.4063 66.3698 62.4387 66.3316 62.4651C66.167 62.5739 66.0289 62.6312 65.9172 62.637C65.8085 62.6429 65.7159 62.6179 65.6395 62.5621C65.5631 62.5063 65.5014 62.4299 65.4544 62.3329C65.4073 62.2359 65.3647 62.1374 65.3265 62.0375C65.2913 61.9376 65.256 61.8494 65.2207 61.773C65.1884 61.6937 65.1487 61.6437 65.1017 61.6231C65.0929 61.6613 65.0738 61.7275 65.0444 61.8215C65.0179 61.9155 64.9885 62.0155 64.9562 62.1213C64.9239 62.2271 64.893 62.327 64.8636 62.421C64.8343 62.5151 64.8137 62.5812 64.8019 62.6194C64.796 62.6341 64.7828 62.662 64.7622 62.7032C64.7446 62.7443 64.7211 62.7899 64.6917 62.8398C64.6623 62.8869 64.6285 62.9339 64.5903 62.9809C64.5551 63.025 64.5183 63.0588 64.4801 63.0823C64.4419 63.1087 64.4037 63.1176 64.3655 63.1087C64.3273 63.0999 64.2935 63.0647 64.2641 63.0029ZM64.4933 61.7025C64.4875 61.7377 64.4831 61.8024 64.4801 61.8964C64.4801 61.9905 64.4801 62.0904 64.4801 62.1962C64.4801 62.302 64.4801 62.4019 64.4801 62.496C64.4831 62.59 64.4875 62.6561 64.4933 62.6944C64.5962 62.5386 64.6888 62.3578 64.7711 62.1521C64.8534 61.9435 64.9151 61.7289 64.9562 61.5085C65.0003 61.2851 65.0179 61.0647 65.0091 60.8473C65.0003 60.6268 64.9562 60.427 64.8769 60.2477C64.8269 60.3388 64.7799 60.4534 64.7358 60.5916C64.6917 60.7297 64.6535 60.8708 64.6212 61.0148C64.5889 61.1558 64.5609 61.2896 64.5374 61.4159C64.5168 61.5394 64.5022 61.6349 64.4933 61.7025ZM63.8938 59.8995C63.9732 59.7437 64.0554 59.635 64.1407 59.5732C64.2288 59.5086 64.3185 59.4733 64.4096 59.4674C64.5036 59.4616 64.5977 59.4763 64.6917 59.5115C64.7887 59.5438 64.8857 59.5791 64.9827 59.6173C65.0797 59.6555 65.1752 59.6864 65.2692 59.7099C65.3662 59.7305 65.4602 59.7275 65.5513 59.7011C65.5866 59.6746 65.6336 59.632 65.6924 59.5732C65.7541 59.5145 65.8173 59.4542 65.882 59.3925C65.9466 59.3308 66.0083 59.2764 66.0671 59.2294C66.1259 59.1794 66.1729 59.1515 66.2082 59.1456C66.2435 59.1397 66.2596 59.1633 66.2567 59.2162C66.2567 59.2691 66.2288 59.366 66.1729 59.5071C66.0877 59.5953 65.9995 59.6746 65.9084 59.7452C65.8173 59.8157 65.7233 59.8745 65.6263 59.9215C65.5322 59.9656 65.4367 59.9964 65.3397 60.0141C65.2457 60.0288 65.1502 60.0244 65.0532 60.0008C64.9885 59.9832 64.9121 59.9509 64.824 59.9039C64.7387 59.8568 64.6506 59.8201 64.5595 59.7937C64.4713 59.7672 64.3831 59.7657 64.295 59.7892C64.2097 59.8098 64.1363 59.8804 64.0745 60.0008L63.8938 59.8995ZM66.7548 62.8486C66.6814 62.7399 66.6373 62.6194 66.6226 62.4872C66.6079 62.352 66.6079 62.2109 66.6226 62.064C66.6373 61.917 66.6608 61.7686 66.6931 61.6187C66.7254 61.4688 66.7534 61.3248 66.7769 61.1867C66.8004 61.0456 66.8136 60.9148 66.8165 60.7944C66.8195 60.6709 66.7989 60.5651 66.7548 60.4769C66.7313 60.4299 66.699 60.4079 66.6578 60.4108C66.6196 60.4108 66.577 60.4167 66.53 60.4285C66.4859 60.4373 66.4404 60.4402 66.3933 60.4373C66.3493 60.4343 66.3096 60.4064 66.2743 60.3535C66.2773 60.3418 66.289 60.3271 66.3096 60.3094C66.3272 60.2889 66.3404 60.2771 66.3493 60.2742C66.6138 60.236 66.8342 60.2639 67.0105 60.3579C67.1898 60.449 67.3323 60.5798 67.4381 60.7503C67.5439 60.9178 67.6159 61.1103 67.6541 61.3278C67.6953 61.5452 67.71 61.7613 67.6982 61.9758C67.6865 62.1903 67.6527 62.3902 67.5968 62.5753C67.541 62.7575 67.4704 62.8986 67.3852 62.9985C67.3 63.0985 67.203 63.1425 67.0943 63.1308C66.9855 63.119 66.8724 63.025 66.7548 62.8486ZM66.9841 62.6944C66.987 62.7032 66.9958 62.7149 67.0105 62.7296C67.0252 62.7443 67.0399 62.7605 67.0546 62.7781C67.0722 62.7957 67.0884 62.8119 67.1031 62.8266C67.1178 62.8384 67.1281 62.8457 67.1339 62.8486C67.2427 62.7869 67.3235 62.7032 67.3764 62.5974C67.4293 62.4916 67.4602 62.374 67.469 62.2447C67.4807 62.1154 67.4749 61.9802 67.4513 61.8391C67.4308 61.6951 67.3999 61.557 67.3588 61.4247C67.3176 61.2925 67.2691 61.1705 67.2133 61.0589C67.1604 60.9472 67.109 60.8561 67.059 60.7855C67.0561 60.8237 67.0502 60.8825 67.0414 60.9619C67.0326 61.0412 67.0237 61.1309 67.0149 61.2308C67.0061 61.3307 66.9958 61.4365 66.9841 61.5482C66.9723 61.6599 66.9605 61.7671 66.9488 61.87C66.94 61.9699 66.9312 62.0596 66.9223 62.1389C66.9135 62.2183 66.9076 62.277 66.9047 62.3152C66.9018 62.3446 66.9018 62.3784 66.9047 62.4166C66.9106 62.4519 66.9179 62.4872 66.9268 62.5224C66.9356 62.5577 66.9444 62.5915 66.9532 62.6238C66.965 62.6532 66.9752 62.6767 66.9841 62.6944ZM70.2374 62.8486C70.2022 62.7811 70.1801 62.6885 70.1713 62.5709C70.1625 62.4504 70.164 62.3167 70.1757 62.1698C70.1904 62.0228 70.2139 61.87 70.2462 61.7113C70.2815 61.5526 70.3241 61.4012 70.3741 61.2572C70.427 61.1132 70.4858 60.9824 70.5504 60.8649C70.618 60.7444 70.6915 60.6518 70.7708 60.5872C70.8502 60.5196 70.9354 60.4872 71.0265 60.4902C71.1176 60.4902 71.2117 60.5372 71.3087 60.6312L71.4585 59.4013C71.4615 59.3896 71.4732 59.3749 71.4938 59.3572C71.5144 59.3367 71.5291 59.3264 71.5379 59.3264C71.5497 59.3264 71.5643 59.3293 71.582 59.3352C71.5996 59.3411 71.6158 59.3484 71.6305 59.3572C71.6481 59.3631 71.6628 59.3705 71.6746 59.3793C71.6863 59.3881 71.6922 59.3954 71.6922 59.4013L71.6922 61.5482C71.6922 61.7098 71.7201 61.8494 71.7759 61.967C71.8318 62.0845 71.9053 62.1712 71.9964 62.2271C72.0875 62.2829 72.1918 62.302 72.3094 62.2844C72.4299 62.2638 72.5548 62.1977 72.6841 62.086C72.7252 62.086 72.7443 62.1051 72.7414 62.1433C72.7384 62.1786 72.7208 62.2212 72.6885 62.2712C72.6591 62.3211 72.615 62.3725 72.5562 62.4254C72.5004 62.4783 72.4372 62.5224 72.3667 62.5577C72.2991 62.59 72.2256 62.6077 72.1462 62.6106C72.0698 62.6135 71.9949 62.59 71.9214 62.5401C71.8626 62.5019 71.8097 62.4563 71.7627 62.4034C71.7157 62.3505 71.6731 62.2932 71.6349 62.2315C71.5996 62.1698 71.5658 62.1066 71.5335 62.0419C71.5041 61.9773 71.4791 61.9141 71.4585 61.8524C71.4468 61.8788 71.4262 61.9185 71.3968 61.9714C71.3704 62.0213 71.3395 62.0801 71.3043 62.1477C71.269 62.2124 71.2322 62.2814 71.194 62.3549C71.1558 62.4254 71.1191 62.4945 71.0838 62.5621C71.0486 62.6268 71.0162 62.6855 70.9869 62.7384C70.9575 62.7884 70.9354 62.8251 70.9207 62.8486C70.8796 62.9251 70.8281 62.9824 70.7664 63.0206C70.7047 63.0588 70.6401 63.0779 70.5725 63.0779C70.5078 63.0779 70.4446 63.0588 70.3829 63.0206C70.3241 62.9824 70.2756 62.9251 70.2374 62.8486ZM70.4667 62.6944C70.4696 62.7032 70.477 62.7149 70.4887 62.7296C70.5005 62.7414 70.5137 62.7531 70.5284 62.7649C70.5431 62.7737 70.5578 62.7796 70.5725 62.7825C70.5901 62.7855 70.6063 62.7811 70.621 62.7693C70.765 62.6606 70.8811 62.5312 70.9692 62.3814C71.0603 62.2315 71.1338 62.0728 71.1896 61.9053C71.2455 61.7377 71.2896 61.5673 71.3219 61.3939C71.3542 61.2176 71.3851 61.05 71.4145 60.8913C71.2558 60.8708 71.1191 60.884 71.0045 60.931C70.8928 60.9751 70.7988 61.0427 70.7223 61.1338C70.6459 61.2249 70.5857 61.3336 70.5416 61.46C70.4975 61.5864 70.4667 61.7201 70.449 61.8612C70.4314 61.9993 70.4241 62.1418 70.427 62.2888C70.4329 62.4328 70.4461 62.568 70.4667 62.6944ZM72.6091 63.0029C72.5503 62.8795 72.518 62.7546 72.5121 62.6282C72.5092 62.5019 72.5166 62.3725 72.5342 62.2403C72.5371 62.1991 72.5445 62.1374 72.5562 62.0551C72.568 61.9729 72.5812 61.8817 72.5959 61.7818C72.6106 61.6819 72.6268 61.5761 72.6444 61.4644C72.662 61.3527 72.6782 61.2469 72.6929 61.147C72.7076 61.0471 72.7208 60.9589 72.7326 60.8825C72.7473 60.8032 72.7575 60.7444 72.7634 60.7062C72.7869 60.5828 72.8119 60.4784 72.8384 60.3932C72.8678 60.305 72.906 60.2374 72.953 60.1904C73.0029 60.1434 73.0661 60.1184 73.1425 60.1155C73.2219 60.1125 73.3233 60.1316 73.4467 60.1728C73.4614 60.1757 73.4776 60.1875 73.4952 60.208C73.5128 60.2257 73.5231 60.2389 73.5261 60.2477C73.5319 60.2859 73.5422 60.3447 73.5569 60.424C73.5746 60.5034 73.5937 60.5945 73.6142 60.6974C73.6348 60.7973 73.6554 60.9031 73.6759 61.0148C73.6995 61.1235 73.7215 61.2293 73.7421 61.3322C73.7626 61.4321 73.7803 61.5217 73.795 61.6011C73.8126 61.6804 73.8258 61.7392 73.8346 61.7774C73.8787 61.9861 73.9331 62.1316 73.9978 62.2138C74.0624 62.2932 74.1315 62.3343 74.205 62.3373C74.2784 62.3402 74.3534 62.3167 74.4298 62.2667C74.5091 62.2138 74.587 62.1595 74.6634 62.1036C74.7398 62.0449 74.8118 61.9949 74.8794 61.9538C74.947 61.9126 75.0058 61.9053 75.0558 61.9317C75.0558 61.9875 75.0425 62.0419 75.0161 62.0948C74.9896 62.1477 74.9573 62.1977 74.9191 62.2447C74.8838 62.2888 74.8442 62.3299 74.8001 62.3681C74.756 62.4063 74.7149 62.4387 74.6766 62.4651C74.5121 62.5739 74.3739 62.6312 74.2623 62.637C74.1535 62.6429 74.0609 62.6179 73.9845 62.5621C73.9081 62.5063 73.8464 62.4299 73.7994 62.3329C73.7524 62.2359 73.7097 62.1374 73.6715 62.0375C73.6363 61.9376 73.601 61.8494 73.5657 61.773C73.5334 61.6937 73.4937 61.6437 73.4467 61.6231C73.4379 61.6613 73.4188 61.7275 73.3894 61.8215C73.363 61.9155 73.3336 62.0155 73.3012 62.1213C73.2689 62.2271 73.2381 62.327 73.2087 62.421C73.1793 62.5151 73.1587 62.5812 73.1469 62.6194C73.1411 62.6341 73.1278 62.662 73.1073 62.7032C73.0896 62.7443 73.0661 62.7899 73.0367 62.8398C73.0073 62.8869 72.9736 62.9339 72.9353 62.9809C72.9001 63.025 72.8633 63.0588 72.8251 63.0823C72.7869 63.1087 72.7487 63.1176 72.7105 63.1087C72.6723 63.0999 72.6385 63.0647 72.6091 63.0029ZM72.8384 61.7025C72.8325 61.7377 72.8281 61.8024 72.8251 61.8964C72.8251 61.9905 72.8251 62.0904 72.8251 62.1962C72.8251 62.302 72.8251 62.4019 72.8251 62.496C72.8281 62.59 72.8325 62.6561 72.8384 62.6944C72.9412 62.5386 73.0338 62.3578 73.1161 62.1521C73.1984 61.9435 73.2601 61.7289 73.3012 61.5085C73.3453 61.2851 73.363 61.0647 73.3541 60.8473C73.3453 60.6268 73.3012 60.427 73.2219 60.2477C73.1719 60.3388 73.1249 60.4534 73.0808 60.5916C73.0367 60.7297 72.9985 60.8708 72.9662 61.0148C72.9339 61.1558 72.906 61.2896 72.8824 61.4159C72.8619 61.5394 72.8472 61.6349 72.8384 61.7025ZM77.2555 63.0029C77.185 62.95 77.1321 62.8766 77.0968 62.7825C77.0645 62.6855 77.0469 62.5959 77.0439 62.5136C77.0439 62.4284 77.0557 62.3637 77.0792 62.3196C77.1027 62.2726 77.135 62.2712 77.1762 62.3152C77.1703 62.4739 77.1997 62.5944 77.2644 62.6767C77.329 62.759 77.4069 62.8104 77.498 62.831C77.592 62.8516 77.6905 62.8457 77.7934 62.8134C77.8992 62.7811 77.9888 62.7311 78.0623 62.6635C78.1387 62.593 78.1901 62.5077 78.2166 62.4078C78.2459 62.3079 78.2313 62.2006 78.1725 62.086C78.0961 62.0008 78.0094 61.9185 77.9124 61.8391C77.8183 61.7568 77.7228 61.676 77.6258 61.5967C77.5289 61.5173 77.4348 61.4365 77.3437 61.3542C77.2526 61.269 77.1718 61.1793 77.1012 61.0853C77.0954 61.0794 77.0924 61.0677 77.0924 61.05C77.0924 61.0295 77.0954 61.0162 77.1012 61.0104C77.1218 60.9839 77.1512 60.9428 77.1894 60.8869C77.2276 60.8311 77.2717 60.7679 77.3217 60.6974C77.3716 60.6268 77.4245 60.5534 77.4804 60.477C77.5362 60.3976 77.5891 60.3227 77.6391 60.2521C77.689 60.1816 77.7331 60.1184 77.7713 60.0626C77.8125 60.0067 77.8433 59.9656 77.8639 59.9391C77.905 59.8862 77.9462 59.8554 77.9873 59.8466C78.0314 59.8377 78.0931 59.8436 78.1725 59.8642C78.1695 59.8759 78.1578 59.9024 78.1372 59.9435C78.1166 59.9817 78.1019 60.0067 78.0931 60.0185C78.0696 60.0537 78.0255 60.1155 77.9609 60.2036C77.8962 60.2889 77.8272 60.3814 77.7537 60.4814C77.6802 60.5783 77.6111 60.6709 77.5465 60.7591C77.4818 60.8443 77.4363 60.9031 77.4098 60.9354C77.3863 60.9707 77.3951 61.0118 77.4363 61.0589C77.4774 61.1059 77.5362 61.1588 77.6126 61.2176C77.689 61.2763 77.7757 61.3425 77.8727 61.4159C77.9697 61.4865 78.0608 61.5629 78.146 61.6452C78.2342 61.7275 78.3077 61.8156 78.3664 61.9097C78.4282 62.0037 78.4605 62.1051 78.4634 62.2138C78.4693 62.3196 78.4384 62.4313 78.3709 62.5489C78.3062 62.6664 78.1886 62.7913 78.0182 62.9236C77.9653 62.9647 77.9065 63 77.8418 63.0294C77.7801 63.0588 77.7155 63.0779 77.6479 63.0867C77.5803 63.0985 77.5127 63.0985 77.4451 63.0867C77.3775 63.0749 77.3143 63.047 77.2555 63.0029ZM78.7103 62.8486C78.7044 62.8369 78.6971 62.8148 78.6883 62.7825C78.6794 62.7473 78.6706 62.709 78.6618 62.6679C78.653 62.6268 78.6456 62.5871 78.6398 62.5489C78.6339 62.5107 78.6309 62.4828 78.6309 62.4651L78.6309 60.3227C78.6309 60.2933 78.6442 60.2727 78.6706 60.2609C78.6971 60.2492 78.7265 60.2433 78.7588 60.2433C78.7941 60.2404 78.8249 60.2404 78.8514 60.2433C78.8808 60.2462 78.8969 60.2477 78.8999 60.2477L78.8999 62.6194C78.8999 62.6694 78.916 62.7105 78.9483 62.7428C78.9807 62.7752 79.0189 62.8016 79.063 62.8222C79.107 62.8398 79.1526 62.8516 79.1996 62.8575C79.2466 62.8604 79.2863 62.8575 79.3186 62.8486C79.3598 62.9104 79.3583 62.9603 79.3142 62.9985C79.2731 63.0338 79.2128 63.0544 79.1335 63.0602C79.0571 63.0632 78.9763 63.0485 78.891 63.0162C78.8087 62.9809 78.7485 62.9251 78.7103 62.8486ZM78.556 59.5556C78.556 59.4704 78.5898 59.416 78.6574 59.3925C78.725 59.366 78.7941 59.369 78.8646 59.4013L78.8646 59.635C78.8558 59.6379 78.8396 59.6408 78.8161 59.6438C78.7955 59.6438 78.772 59.6438 78.7456 59.6438C78.722 59.6438 78.6985 59.6438 78.675 59.6438C78.6545 59.6408 78.6398 59.6379 78.6309 59.635C78.6192 59.632 78.603 59.6203 78.5825 59.5997C78.5648 59.5791 78.556 59.5644 78.556 59.5556ZM79.7815 63.0029C79.7169 62.9618 79.6684 62.8986 79.636 62.8134C79.6067 62.7252 79.5846 62.6341 79.5699 62.5401C79.5582 62.4431 79.5523 62.3534 79.5523 62.2712L79.5523 62.086C79.5523 62.0537 79.5538 61.989 79.5567 61.892C79.5596 61.7921 79.564 61.6775 79.5699 61.5482C79.5758 61.4159 79.5817 61.2763 79.5876 61.1294C79.5934 60.9795 79.5993 60.8399 79.6052 60.7106C79.6111 60.5783 79.6155 60.4637 79.6184 60.3667C79.6243 60.2698 79.6272 60.2051 79.6272 60.1728C79.6272 60.1287 79.6272 60.0523 79.6272 59.9435C79.6302 59.8348 79.6316 59.7202 79.6316 59.5997C79.6316 59.4763 79.6302 59.3602 79.6272 59.2514C79.6272 59.1427 79.6272 59.0663 79.6272 59.0222C79.6713 58.9899 79.7095 58.9678 79.7419 58.9561C79.7712 58.9443 79.7977 58.9428 79.8212 58.9517C79.8447 58.9575 79.8565 58.981 79.8565 59.0222L79.8565 62.6194C79.8565 62.64 79.8623 62.665 79.8741 62.6944C79.8888 62.7208 79.9064 62.7443 79.927 62.7649C79.9476 62.7855 79.9711 62.7987 79.9975 62.8046C80.0269 62.8075 80.0563 62.7957 80.0857 62.7693L80.6191 62.3152C80.6338 62.3828 80.6323 62.4534 80.6147 62.5268C80.5971 62.6003 80.5677 62.6694 80.5265 62.734C80.4883 62.7987 80.4398 62.8575 80.3811 62.9104C80.3223 62.9633 80.2591 63.0044 80.1915 63.0338C80.1239 63.0602 80.0548 63.0735 79.9843 63.0735C79.9138 63.0705 79.8462 63.047 79.7815 63.0029ZM80.8792 61.5482C80.8704 61.5247 80.8513 61.4835 80.8219 61.4247L80.7293 61.2396C80.697 61.1749 80.6647 61.1147 80.6323 61.0589C80.6029 61.0001 80.5824 60.9589 80.5706 60.9354C80.5794 60.9031 80.5985 60.8796 80.6279 60.8649C80.6573 60.8502 80.6882 60.8443 80.7205 60.8473C80.7528 60.8473 80.7837 60.8546 80.8131 60.8693C80.8454 60.884 80.8675 60.906 80.8792 60.9354L81.4876 62.3152L82.0254 60.402L82.0474 60.3711C82.0651 60.3476 82.0842 60.3256 82.1047 60.305C82.1282 60.2815 82.1532 60.2624 82.1797 60.2477C82.2061 60.233 82.2311 60.233 82.2546 60.2477C82.2605 60.2595 82.2634 60.2859 82.2634 60.3271C82.2634 60.3653 82.2605 60.3903 82.2546 60.402C82.2487 60.4255 82.2296 60.4814 82.1973 60.5695C82.1679 60.6577 82.1356 60.7547 82.1003 60.8605C82.0651 60.9633 82.0327 61.0603 82.0033 61.1514C81.9739 61.2396 81.9563 61.2954 81.9504 61.3189C81.9446 61.3425 81.9343 61.3924 81.9196 61.4688C81.9078 61.5423 81.8946 61.629 81.8799 61.7289C81.8652 61.8288 81.849 61.9346 81.8314 62.0463C81.8138 62.158 81.7961 62.2638 81.7785 62.3637C81.7638 62.4637 81.7506 62.5503 81.7388 62.6238C81.7271 62.6973 81.7197 62.7458 81.7168 62.7693C81.7109 62.8046 81.7006 62.8428 81.6859 62.8839C81.6742 62.9251 81.6565 62.9633 81.633 62.9985C81.6095 63.0309 81.5787 63.0558 81.5405 63.0735C81.5052 63.0911 81.4626 63.0926 81.4126 63.0779C81.4009 63.0397 81.3803 62.9809 81.3509 62.9015C81.3245 62.8193 81.2936 62.7282 81.2583 62.6282C81.2231 62.5283 81.1863 62.4225 81.1481 62.3108C81.1099 62.1991 81.0732 62.0933 81.0379 61.9934C81.0026 61.8935 80.9703 61.8039 80.9409 61.7245C80.9145 61.6452 80.8939 61.5864 80.8792 61.5482ZM82.5985 63.0029C82.5397 62.8795 82.5074 62.7546 82.5015 62.6282C82.4985 62.5019 82.5059 62.3725 82.5235 62.2403C82.5265 62.1991 82.5338 62.1374 82.5456 62.0551C82.5573 61.9729 82.5705 61.8817 82.5852 61.7818C82.5999 61.6819 82.6161 61.5761 82.6337 61.4644C82.6514 61.3527 82.6675 61.2469 82.6822 61.147C82.6969 61.0471 82.7101 60.9589 82.7219 60.8825C82.7366 60.8032 82.7469 60.7444 82.7528 60.7062C82.7763 60.5828 82.8013 60.4784 82.8277 60.3932C82.8571 60.305 82.8953 60.2374 82.9423 60.1904C82.9923 60.1434 83.0555 60.1184 83.1319 60.1155C83.2112 60.1125 83.3126 60.1316 83.4361 60.1728C83.4508 60.1757 83.4669 60.1875 83.4845 60.208C83.5022 60.2257 83.5125 60.2389 83.5154 60.2477C83.5213 60.2859 83.5316 60.3447 83.5463 60.4241C83.5639 60.5034 83.583 60.5945 83.6036 60.6974C83.6241 60.7973 83.6447 60.9031 83.6653 61.0148C83.6888 61.1235 83.7108 61.2293 83.7314 61.3322C83.752 61.4321 83.7696 61.5217 83.7843 61.6011C83.8019 61.6804 83.8152 61.7392 83.824 61.7774C83.8681 61.9861 83.9224 62.1316 83.9871 62.2138C84.0518 62.2932 84.1208 62.3343 84.1943 62.3373C84.2678 62.3402 84.3427 62.3167 84.4191 62.2667C84.4985 62.2138 84.5764 62.1595 84.6528 62.1036C84.7292 62.0449 84.8012 61.9949 84.8688 61.9538C84.9364 61.9126 84.9951 61.9053 85.0451 61.9317C85.0451 61.9875 85.0319 62.0419 85.0054 62.0948C84.979 62.1477 84.9467 62.1977 84.9084 62.2447C84.8732 62.2888 84.8335 62.3299 84.7894 62.3681C84.7453 62.4063 84.7042 62.4387 84.666 62.4651C84.5014 62.5739 84.3633 62.6312 84.2516 62.637C84.1429 62.6429 84.0503 62.6179 83.9739 62.5621C83.8975 62.5063 83.8357 62.4299 83.7887 62.3329C83.7417 62.2359 83.6991 62.1374 83.6609 62.0375C83.6256 61.9376 83.5903 61.8494 83.5551 61.773C83.5228 61.6937 83.4831 61.6437 83.4361 61.6231C83.4272 61.6613 83.4081 61.7275 83.3787 61.8215C83.3523 61.9155 83.3229 62.0155 83.2906 62.1213C83.2583 62.2271 83.2274 62.327 83.198 62.421C83.1686 62.5151 83.148 62.5812 83.1363 62.6194C83.1304 62.6341 83.1172 62.662 83.0966 62.7032C83.079 62.7443 83.0555 62.7899 83.0261 62.8398C82.9967 62.8869 82.9629 62.9339 82.9247 62.9809C82.8894 63.025 82.8527 63.0588 82.8145 63.0823C82.7763 63.1087 82.7381 63.1176 82.6999 63.1087C82.6617 63.0999 82.6279 63.0647 82.5985 63.0029ZM82.8277 61.7025C82.8218 61.7377 82.8174 61.8024 82.8145 61.8964C82.8145 61.9905 82.8145 62.0904 82.8145 62.1962C82.8145 62.302 82.8145 62.4019 82.8145 62.496C82.8174 62.59 82.8218 62.6561 82.8277 62.6944C82.9306 62.5386 83.0231 62.3579 83.1054 62.1521C83.1877 61.9435 83.2494 61.7289 83.2906 61.5085C83.3347 61.2851 83.3523 61.0647 83.3435 60.8473C83.3347 60.6268 83.2906 60.427 83.2112 60.2477C83.1613 60.3388 83.1142 60.4534 83.0702 60.5916C83.0261 60.7297 82.9879 60.8708 82.9555 61.0148C82.9232 61.1558 82.8953 61.2896 82.8718 61.4159C82.8512 61.5394 82.8365 61.6349 82.8277 61.7025Z" fill="#4C61D1"/>
<path d="M93.4588 23.5509L35.5 23.5509" stroke="#2F4439" stroke-width="0.75236" stroke-linecap="round"/>
<path d="M93.4588 26.1987L35.5 26.1987" stroke="#2F4439" stroke-width="0.75236" stroke-linecap="round"/>
<path d="M97.9028 35.0184L48.5 35.0184" stroke="#2F4439" stroke-width="0.75236" stroke-linecap="round"/>
<path d="M97.9028 37.6693L48.5 37.6693" stroke="#2F4439" stroke-width="0.75236" stroke-linecap="round"/>
<path d="M97.9028 40.3143L48.5 40.3143" stroke="#2F4439" stroke-width="0.75236" stroke-linecap="round"/>
<path d="M97.9028 42.9624L48.5 42.9624" stroke="#2F4439" stroke-width="0.75236" stroke-linecap="round"/>
<path d="M97.9028 45.6073L48.5 45.6073" stroke="#2F4439" stroke-width="0.75236" stroke-linecap="round"/>
<path d="M97.9028 48.2552L48.5 48.2552" stroke="#2F4439" stroke-width="0.75236" stroke-linecap="round"/>
<path d="M97.9028 50.9004L48.5 50.9004" stroke="#2F4439" stroke-width="0.75236" stroke-linecap="round"/>
<path d="M93.4588 20.9059L35.5 20.9059" stroke="#2F4439" stroke-width="0.75236" stroke-linecap="round"/>
<ellipse cx="29.4288" cy="23.5539" rx="5.20029" ry="5.29311" fill="#2F4439"/>
<defs>
<filter id="filter0_f_13335_37044" x="33.0113" y="54.2002" width="4.91488" height="3.62288" filterUnits="userSpaceOnUse" color-interpolation-filters="sRGB">
<feFlood flood-opacity="0" result="BackgroundImageFix"/>
<feBlend mode="normal" in="SourceGraphic" in2="BackgroundImageFix" result="shape"/>
<feGaussianBlur stdDeviation="0.37618" result="effect1_foregroundBlur_13335_37044"/>
</filter>
</defs>
</svg>
