<svg width="66" height="52" viewBox="0 0 66 52" fill="none" xmlns="http://www.w3.org/2000/svg">
<path d="M58.6902 11.8351C58.1343 11.8351 57.2108 12.3562 55.691 13.2219C52.2615 15.1696 45.8821 18.8001 38.086 18.8001C37.9022 18.8001 37.7274 18.7957 37.566 18.7913C42.076 13.5399 43.2998 5.89468 41.3183 1.74746C40.5831 0.20605 37.5346 -0.796527 34.0154 0.837631C33.0874 1.27046 32.8095 1.8093 33.0381 2.29071C33.2892 2.82071 33.6075 2.73237 34.253 4.08386C36.2525 8.27526 35.4007 16.4946 33.4461 17.4C32.9574 17.6253 32.4284 17.5193 32.1505 16.9407C30.9983 14.5336 32.9305 9.69741 31.617 6.95026C30.6755 4.97602 27.2639 3.96462 24.8206 5.09969C23.942 5.50602 23.6147 6.07135 23.8433 6.55277C25.2869 9.57375 24.4979 14.8163 24.8834 18.619C18.4771 17.8638 13.2857 14.9135 10.3134 13.2263C8.78919 12.3606 7.87016 11.8395 7.31426 11.8395C4.98307 11.8395 0.5 17.5502 0.5 25.3588C0.5 40.3622 13.6578 52 24.9731 52C27.5284 52 29.6041 50.7236 31.0431 48.9746C32.0384 47.7644 33.9616 47.7644 34.9569 48.9746C36.3959 50.7236 38.4671 52 41.0269 52C52.3467 52 65.5 40.3622 65.5 25.3588C65.5045 17.5414 61.0214 11.8351 58.6902 11.8351ZM29.102 43.1623C20.6648 43.1623 12.7702 39.0681 7.99569 32.2135L9.28681 32.3283C11.8242 32.5535 14.3751 32.5491 16.908 32.315L18.1498 32.2002C24.1751 31.6437 29.102 36.0692 29.102 42.0272V43.1623ZM21.0593 29.3073C19.6741 28.7685 17.325 28.4593 14.9938 28.2296C13.0571 28.0397 11.5866 26.4365 11.5866 24.5197L17.8719 25.7077C24.3948 26.94 29.232 32.7081 30.1555 38.9665C28.9585 34.5896 25.4886 30.8531 21.0593 29.3073ZM33.0022 40.848C32.2536 36.6522 30.29 33.7019 29.1244 31.9573C28.7209 31.3522 28.304 30.725 28.295 30.5749C28.3309 30.4821 28.6178 30.195 28.8689 29.9477C29.9448 28.8745 32.1863 26.6397 32.9978 22.7928C33.8092 26.6397 36.0507 28.8745 37.1267 29.9477C37.3777 30.1995 37.6646 30.4821 37.696 30.5307C37.696 30.725 37.2791 31.3522 36.8756 31.9573C35.71 33.7019 33.7464 36.6522 33.0022 40.848ZM48.0474 25.7077L54.3327 24.5197C54.3327 26.4365 52.8577 28.0397 50.9255 28.2296C48.5944 28.4549 46.2497 28.7641 44.86 29.3073C40.4307 30.8531 36.9608 34.5896 35.7638 38.9665C36.6873 32.7125 41.5246 26.94 48.0474 25.7077ZM36.8218 43.1623V42.0272C36.8218 36.0648 41.7487 31.6437 47.7739 32.2002L49.0158 32.315C51.5487 32.5491 54.104 32.5535 56.637 32.3283L57.9281 32.2135C53.1536 39.0681 45.2589 43.1623 36.8218 43.1623Z" fill="#6524B5"/>
</svg>
